<svg xmlns="http://www.w3.org/2000/svg" width="1600" height="900" viewBox="0 0 1600 900" role="img" aria-label="Abstract event processing illustration">
  <defs>
    <linearGradient id="g1" x1="0" y1="0" x2="1" y2="1">
      <stop offset="0" stop-color="#0c2f3a"/>
      <stop offset="1" stop-color="#2aa8a2"/>
    </linearGradient>
    <linearGradient id="g2" x1="1" y1="0" x2="0" y2="1">
      <stop offset="0" stop-color="#d46d3a"/>
      <stop offset="1" stop-color="#fbf7f0"/>
    </linearGradient>
    <filter id="blur" x="-20%" y="-20%" width="140%" height="140%">
      <feGaussianBlur stdDeviation="18"/>
    </filter>
  </defs>
  <rect width="1600" height="900" fill="#fbf7f0"/>
  <circle cx="380" cy="260" r="260" fill="url(#g2)" filter="url(#blur)" opacity="0.9"/>
  <circle cx="1280" cy="240" r="300" fill="url(#g1)" filter="url(#blur)" opacity="0.9"/>
  <circle cx="980" cy="740" r="340" fill="#0c2f3a" filter="url(#blur)" opacity="0.15"/>
  <g opacity="0.85" stroke="#112027" stroke-width="3" fill="none">
    <path d="M170 540 C420 420, 560 660, 840 520 S1280 520, 1460 620" opacity="0.22"/>
    <path d="M160 610 C450 460, 600 720, 860 560 S1260 560, 1460 700" opacity="0.18"/>
  </g>
  <g fill="#112027" opacity="0.18">
    <circle cx="260" cy="560" r="7"/>
    <circle cx="420" cy="500" r="7"/>
    <circle cx="560" cy="610" r="7"/>
    <circle cx="720" cy="550" r="7"/>
    <circle cx="900" cy="590" r="7"/>
    <circle cx="1080" cy="560" r="7"/>
    <circle cx="1240" cy="600" r="7"/>
    <circle cx="1380" cy="650" r="7"/>
  </g>
  <g font-family="ui-monospace, SFMono-Regular, Menlo, Monaco, Consolas, Liberation Mono, Courier New, monospace" fill="#112027" opacity="0.22">
    <text x="120" y="140" font-size="22">ingest</text>
    <text x="520" y="180" font-size="22">validate</text>
    <text x="900" y="160" font-size="22">route</text>
    <text x="1220" y="190" font-size="22">award</text>
  </g>
</svg>

